<svg xmlns="http://www.w3.org/2000/svg" width="35" height="28" viewBox="0 0 35 28" fill="none"><path d="M23.9126 2.68359C21.8677 4.24386 20.2762 6.36335 19.3602 8.81653H0V2.68359H23.9126Z" fill="#C48F56"></path><path d="M18.5012 13.6178C18.5012 14.4365 18.5737 15.2398 18.7094 16.0184H5.85712V9.8855H19.0132C18.6801 11.0719 18.5028 12.3248 18.5028 13.6193L18.5012 13.6178Z" fill="#C48F56"></path><path d="M22.955 23.7504H12.2463V17.6174H19.0934C19.8152 19.998 21.1692 22.1082 22.9565 23.7504H22.955Z" fill="#C48F56"></path><path d="M18.3686 0.883789H12.2463V2.74993H18.3686V0.883789Z" fill="#C48F56"></path><path d="M34.5396 3.60728V0.940918C27.5305 1.15101 21.8955 6.92709 21.8955 13.9993C21.8955 21.0715 27.5305 26.8475 34.5396 27.0576V24.3913C29.0002 24.1812 24.5573 19.5992 24.5573 13.9993C24.5573 8.39931 29.0002 3.81737 34.5396 3.60728V3.60728Z" fill="#C48F56"></path></svg>