<svg xmlns="http://www.w3.org/2000/svg" width="111" height="114" viewBox="0 0 111 114" fill="none"><path opacity="0.3" d="M97.7855 60.972C97.7855 34.3128 76.174 12.7013 49.5148 12.7013C22.8557 12.7013 1.24414 34.3128 1.24414 60.972C1.24414 87.6311 22.8557 109.243 49.5148 109.243C76.174 109.243 97.7855 87.6311 97.7855 60.972Z" stroke="#C48F56"></path><path d="M19.4985 9.30977C48.0317 -7.26083 84.5952 2.43677 101.166 30.9699C117.736 59.503 108.039 96.0664 79.5059 112.637L80.1182 113.691C109.233 96.7824 119.129 59.4729 102.22 30.3575C85.3112 1.24207 48.0016 -8.65343 18.8862 8.25537L19.4985 9.30977Z" fill="#C48F56"></path><path d="M67.5005 57.1221C66.794 57.1207 66.105 57.3415 65.5309 57.7534L61.6087 60.5393V59.6472C61.6087 58.531 61.1653 57.4606 60.3761 56.6713C59.5868 55.8821 58.5164 55.4387 57.4002 55.4387H57.2067C58.2372 54.5364 58.9681 53.3412 59.3017 52.0127C59.6353 50.6842 59.5558 49.2855 59.0738 48.0033C58.5918 46.7211 57.7303 45.6165 56.6041 44.8367C55.4779 44.057 54.1407 43.6392 52.771 43.6392C51.4012 43.6392 50.064 44.057 48.9378 44.8367C47.8117 45.6165 46.9501 46.7211 46.4681 48.0033C45.9861 49.2855 45.9066 50.6842 46.2402 52.0127C46.5739 53.3412 47.3047 54.5364 48.3353 55.4387H44.3204C44.9786 54.7058 45.4081 53.7964 45.556 52.8225C45.7038 51.8486 45.5636 50.8527 45.1526 49.9574C44.7416 49.0622 44.0778 48.3067 43.2428 47.784C42.4079 47.2612 41.4383 46.9941 40.4534 47.0155C39.4686 47.0369 38.5115 47.3458 37.7 47.9043C36.8885 48.4628 36.2581 49.2464 35.8863 50.1586C35.5146 51.0709 35.4178 52.0719 35.6078 53.0385C35.7978 54.0051 36.2663 54.895 36.9557 55.5986C36.0629 55.837 35.2734 56.3626 34.7091 57.0943C34.1447 57.826 33.8368 58.7231 33.833 59.6472V71.4308C33.833 72.5469 34.2764 73.6173 35.0656 74.4066C35.8549 75.1958 36.9253 75.6392 38.0415 75.6392H57.4002C58.5164 75.6392 59.5868 75.1958 60.3761 74.4066C61.1653 73.6173 61.6087 72.5469 61.6087 71.4308V70.5386L65.5057 73.3246C66.0088 73.6946 66.605 73.9175 67.2275 73.9681C67.85 74.0188 68.4743 73.8953 69.0307 73.6114C69.587 73.3276 70.0534 72.8946 70.3778 72.3608C70.7021 71.8271 70.8716 71.2136 70.8672 70.5891V60.4888C70.8672 59.5959 70.5125 58.7396 69.8811 58.1082C69.2497 57.4768 68.3934 57.1221 67.5005 57.1221ZM47.7208 50.3886C47.7208 49.3898 48.017 48.4134 48.5719 47.5829C49.1269 46.7524 49.9156 46.1051 50.8384 45.7229C51.7612 45.3407 52.7766 45.2407 53.7562 45.4355C54.7358 45.6304 55.6357 46.1114 56.3419 46.8176C57.0482 47.5239 57.5292 48.4237 57.7241 49.4034C57.9189 50.383 57.8189 51.3984 57.4367 52.3212C57.0544 53.244 56.4072 54.0327 55.5767 54.5876C54.7462 55.1425 53.7698 55.4387 52.771 55.4387C51.4316 55.4387 50.1471 54.9067 49.2 53.9596C48.2529 53.0125 47.7208 51.728 47.7208 50.3886ZM40.5665 48.7052C41.2324 48.7052 41.8833 48.9027 42.437 49.2726C42.9906 49.6426 43.4222 50.1684 43.677 50.7836C43.9318 51.3988 43.9985 52.0757 43.8686 52.7288C43.7387 53.3819 43.418 53.9818 42.9472 54.4526C42.4763 54.9235 41.8764 55.2441 41.2233 55.374C40.5702 55.5039 39.8933 55.4373 39.2781 55.1824C38.6629 54.9276 38.1371 54.4961 37.7672 53.9424C37.3972 53.3888 37.1998 52.7379 37.1998 52.072C37.1998 51.1791 37.5545 50.3227 38.1859 49.6913C38.8172 49.0599 39.6736 48.7052 40.5665 48.7052ZM59.9253 71.4308C59.9253 72.1005 59.6593 72.7427 59.1857 73.2163C58.7122 73.6898 58.0699 73.9558 57.4002 73.9558H38.0415C37.3718 73.9558 36.7295 73.6898 36.256 73.2163C35.7824 72.7427 35.5164 72.1005 35.5164 71.4308V59.6472C35.5164 58.9775 35.7824 58.3352 36.256 57.8617C36.7295 57.3881 37.3718 57.1221 38.0415 57.1221H57.4002C58.0699 57.1221 58.7122 57.3881 59.1857 57.8617C59.6593 58.3352 59.9253 58.9775 59.9253 59.6472V71.4308ZM69.1839 70.5891C69.1931 70.9067 69.1123 71.2205 68.9507 71.4941C68.7891 71.7677 68.5534 71.99 68.2708 72.1352C67.9882 72.2805 67.6702 72.3428 67.3537 72.315C67.0371 72.2871 66.735 72.1702 66.482 71.9779L61.6087 68.4764V62.5846L66.482 59.1085C66.7344 58.9166 67.0358 58.7999 67.3515 58.7717C67.6673 58.7436 67.9846 58.8052 68.2668 58.9494C68.5491 59.0936 68.785 59.3146 68.9472 59.587C69.1094 59.8593 69.1915 60.1719 69.1839 60.4888V70.5891Z" fill="#C48F56"></path></svg>