<svg xmlns="http://www.w3.org/2000/svg" width="111" height="114" viewBox="0 0 111 114" fill="none"><path opacity="0.3" d="M97.5414 60.472C97.5414 33.8128 75.9299 12.2013 49.2707 12.2013C22.6115 12.2013 0.999997 33.8128 0.999998 60.472C0.999999 87.1311 22.6115 108.743 49.2707 108.743C75.9299 108.743 97.5414 87.1311 97.5414 60.472Z" stroke="#C48F56"></path><path d="M19.2671 9.30977C47.8003 -7.26083 84.3636 2.43677 100.935 30.9699C117.506 59.503 107.808 96.0664 79.2745 112.637L79.8868 113.691C109.003 96.7824 118.898 59.4729 101.989 30.3575C85.0806 1.24207 47.7703 -8.65343 18.6548 8.25537L19.2671 9.30977Z" fill="#C48F56"></path><path d="M50.4269 51.6685C48.5654 51.6685 46.7458 52.2205 45.198 53.2547C43.6502 54.2888 42.4439 55.7588 41.7316 57.4785C41.0192 59.1983 40.8328 61.0907 41.196 62.9164C41.5591 64.7421 42.4555 66.4191 43.7718 67.7354C45.088 69.0516 46.765 69.948 48.5907 70.3112C50.4165 70.6743 52.3088 70.488 54.0286 69.7756C55.7484 69.0632 57.2183 67.8569 58.2525 66.3092C59.2867 64.7614 59.8387 62.9417 59.8387 61.0803C59.8387 58.5841 58.8471 56.1902 57.082 54.4251C55.317 52.6601 52.923 51.6685 50.4269 51.6685ZM50.4269 68.6097C48.9377 68.6097 47.482 68.1681 46.2438 67.3407C45.0056 66.5134 44.0405 65.3375 43.4706 63.9616C42.9007 62.5858 42.7516 61.0719 43.0422 59.6113C43.3327 58.1508 44.0498 56.8092 45.1028 55.7562C46.1558 54.7032 47.4974 53.986 48.958 53.6955C50.4185 53.405 51.9325 53.5541 53.3083 54.124C54.6841 54.6939 55.86 55.6589 56.6874 56.8971C57.5147 58.1354 57.9563 59.5911 57.9563 61.0803C57.9563 63.0772 57.163 64.9923 55.751 66.4044C54.339 67.8164 52.4238 68.6097 50.4269 68.6097Z" fill="#C48F56"></path><path d="M62.6623 47.9039H58.54L57.7588 46.3416C57.4008 45.7013 56.8852 45.1629 56.261 44.7775C55.6368 44.3921 54.9246 44.1724 54.1917 44.1392H46.6623C45.9295 44.1724 45.2172 44.3921 44.593 44.7775C43.9688 45.1629 43.4533 45.7013 43.0953 46.3416L42.3141 47.9039H38.1917C36.4444 47.9039 34.7687 48.598 33.5331 49.8336C32.2976 51.0691 31.6035 52.7448 31.6035 54.4921V69.551C31.6035 71.2983 32.2976 72.974 33.5331 74.2096C34.7687 75.4451 36.4444 76.1392 38.1917 76.1392H62.6623C64.4096 76.1392 66.0854 75.4451 67.3209 74.2096C68.5564 72.974 69.2506 71.2983 69.2506 69.551V54.4921C69.2506 52.7448 68.5564 51.0691 67.3209 49.8336C66.0854 48.598 64.4096 47.9039 62.6623 47.9039ZM67.3682 69.551C67.3682 70.799 66.8724 71.996 65.9899 72.8785C65.1074 73.7611 63.9104 74.2568 62.6623 74.2568H38.1917C36.9437 74.2568 35.7467 73.7611 34.8642 72.8785C33.9816 71.996 33.4859 70.799 33.4859 69.551V54.4921C33.4859 53.2441 33.9816 52.0471 34.8642 51.1646C35.7467 50.2821 36.9437 49.7863 38.1917 49.7863H42.8976C43.0714 49.7857 43.2417 49.7371 43.3895 49.6457C43.5374 49.5544 43.6571 49.4238 43.7353 49.2686L44.78 47.1886C44.9775 46.8577 45.2516 46.579 45.5791 46.376C45.9066 46.1729 46.2781 46.0514 46.6623 46.0216H54.1917C54.576 46.0514 54.9474 46.1729 55.275 46.376C55.6025 46.579 55.8765 46.8577 56.0741 47.1886L57.1188 49.2686C57.197 49.4238 57.3167 49.5544 57.4645 49.6457C57.6124 49.7371 57.7826 49.7857 57.9564 49.7863H62.6623C63.9104 49.7863 65.1074 50.2821 65.9899 51.1646C66.8724 52.0471 67.3682 53.2441 67.3682 54.4921V69.551Z" fill="#C48F56"></path></svg>