<svg xmlns="http://www.w3.org/2000/svg" width="110" height="114" viewBox="0 0 110 114" fill="none"><path opacity="0.3" d="M97.2367 60.222C97.2367 33.5628 75.6252 11.9513 48.966 11.9513C22.3068 11.9513 0.695309 33.5628 0.69531 60.222C0.695312 86.8811 22.3068 108.493 48.966 108.493C75.6252 108.493 97.2367 86.8811 97.2367 60.222Z" stroke="#C48F56"></path><path d="M18.8467 9.30977C47.3799 -7.26083 83.9431 2.43677 100.514 30.9699C117.085 59.503 107.387 96.0664 78.8541 112.637L79.4664 113.691C108.582 96.7824 118.477 59.4729 101.568 30.3575C84.6601 1.24207 47.3498 -8.65343 18.2344 8.25537L18.8467 9.30977Z" fill="#C48F56"></path><path d="M49.2842 44.8892C40.4477 44.8892 33.2842 52.0526 33.2842 60.8892C33.2842 69.7258 40.4477 76.8892 49.2842 76.8892C58.1208 76.8892 65.2842 69.7258 65.2842 60.8892C65.2842 52.0526 58.1208 44.8892 49.2842 44.8892ZM49.2842 74.8892C41.5522 74.8892 35.2842 68.6212 35.2842 60.8892C35.2842 53.1572 41.5522 46.8892 49.2842 46.8892C57.0162 46.8892 63.2842 53.1572 63.2842 60.8892C63.2842 68.6212 57.0162 74.8892 49.2842 74.8892Z" fill="#C48F56"></path><path d="M44.2842 57.8892C45.3888 57.8892 46.2842 56.9938 46.2842 55.8892C46.2842 54.7846 45.3888 53.8892 44.2842 53.8892C43.1797 53.8892 42.2842 54.7846 42.2842 55.8892C42.2842 56.9938 43.1797 57.8892 44.2842 57.8892Z" fill="#C48F56"></path><path d="M54.2842 57.8892C55.3888 57.8892 56.2842 56.9938 56.2842 55.8892C56.2842 54.7846 55.3888 53.8892 54.2842 53.8892C53.1797 53.8892 52.2842 54.7846 52.2842 55.8892C52.2842 56.9938 53.1797 57.8892 54.2842 57.8892Z" fill="#C48F56"></path><path d="M56.2842 60.8892C56.2842 64.7552 53.1502 67.8892 49.2842 67.8892C45.4182 67.8892 42.2842 64.7552 42.2842 60.8892H40.2842C40.2842 65.8598 44.3137 69.8892 49.2842 69.8892C54.2548 69.8892 58.2842 65.8598 58.2842 60.8892H56.2842Z" fill="#C48F56"></path></svg>