<svg xmlns="http://www.w3.org/2000/svg" width="111" height="114" viewBox="0 0 111 114" fill="none"><path opacity="0.3" d="M98.017 60.472C98.017 33.8128 76.4055 12.2013 49.7463 12.2013C23.0871 12.2013 1.47558 33.8128 1.47558 60.472C1.47558 87.1311 23.0871 108.743 49.7463 108.743C76.4055 108.743 98.017 87.1311 98.017 60.472Z" stroke="#C48F56"></path><path d="M19.7183 9.30977C48.2514 -7.26083 84.8154 2.43677 101.385 30.9699C117.956 59.503 108.258 96.0664 79.7256 112.637L80.3379 113.691C109.453 96.7824 119.348 59.4729 102.44 30.3575C85.5314 1.24207 48.2214 -8.65343 19.106 8.25537L19.7183 9.30977Z" fill="#C48F56"></path><path d="M61.2331 46.1392H40.8745C37.6162 46.1392 35.0645 48.6708 35.0645 51.9028V63.4732C35.0645 66.7092 37.6162 69.2445 40.8745 69.2445H43.3824C43.8926 69.2445 44.3067 68.8308 44.3067 68.3201C44.3067 67.8099 43.893 67.3958 43.3824 67.3958H40.8745C38.653 67.3958 36.9128 65.6729 36.9128 63.4728V51.9028C36.9128 49.7072 38.653 47.9875 40.8745 47.9875H61.2327C63.5804 47.9875 65.5636 49.7804 65.5636 51.9028V54.4571C65.5636 54.9673 65.9772 55.3814 66.4879 55.3814C66.9986 55.3814 67.4123 54.9677 67.4123 54.4571V51.9028C67.4123 48.7788 64.5823 46.1392 61.2331 46.1392Z" fill="#C48F56"></path><path d="M49.9189 62.9836L54.7407 59.2243C55.264 58.8354 55.5765 58.2248 55.5765 57.5908C55.5765 57.0158 55.3149 56.491 54.8661 56.1578L49.9019 52.3795C49.5675 52.1309 49.1894 51.9995 48.8085 51.9995C47.8389 51.9995 47.0791 52.8417 47.0791 53.9161V61.4596C47.0791 62.5339 47.8385 63.3762 48.8085 63.3762C49.1894 63.3762 49.5675 63.2448 49.9189 62.9836ZM48.9278 53.9609L53.7278 57.5884C53.7307 57.6118 53.7084 57.6894 53.6215 57.7541L48.9282 61.4082L48.9278 53.9609Z" fill="#C48F56"></path><path d="M63.7567 69.34C65.6175 69.34 67.1314 67.8261 67.1314 65.9649C67.1314 64.1037 65.6175 62.5898 63.7567 62.5898C61.8959 62.5898 60.382 64.1037 60.382 65.9649C60.382 66.1436 60.4079 66.3155 60.4349 66.4869L55.5306 69.4443L49.9837 66.0999C49.5458 65.8359 48.9781 65.9766 48.7149 66.4141C48.4513 66.8508 48.592 67.4189 49.0291 67.6826L53.741 70.5239L49.0291 73.3653C48.5924 73.6289 48.4513 74.1966 48.7149 74.6337C48.8888 74.9216 49.1941 75.0809 49.5074 75.0809C49.67 75.0809 49.8345 75.0381 49.9842 74.9479L55.531 71.6035L60.405 74.5423C60.4002 74.6171 60.3824 74.6887 60.3824 74.7643C60.3824 76.6255 61.8963 78.1391 63.7571 78.1391C65.6179 78.1391 67.1318 76.6255 67.1318 74.7643C67.1318 72.9035 65.6179 71.3896 63.7571 71.3896C62.6443 71.3896 61.6634 71.9379 61.0483 72.7713L57.3211 70.5239L61.2238 68.1706C61.8421 68.8806 62.7426 69.34 63.7567 69.34ZM63.7567 64.4381C64.5981 64.4381 65.2831 65.123 65.2831 65.9649C65.2831 66.8067 64.5985 67.4917 63.7567 67.4917C62.9152 67.4917 62.2303 66.8067 62.2303 65.9649C62.2303 65.123 62.9148 64.4381 63.7567 64.4381ZM63.7567 73.2379C64.5981 73.2379 65.2831 73.9225 65.2831 74.7643C65.2831 75.6062 64.5985 76.2911 63.7567 76.2911C62.9152 76.2911 62.2303 75.6062 62.2303 74.7643C62.2303 73.9225 62.9148 73.2379 63.7567 73.2379Z" fill="#C48F56"></path></svg>