<svg xmlns="http://www.w3.org/2000/svg" width="160" height="161" viewBox="0 0 160 161" fill="none"><path d="M13.9974 53.0585C13.5558 50.9577 13.0712 49.2694 12.5436 47.9936C12.0114 46.7054 11.3013 45.8542 10.4131 45.4401C9.82943 45.168 9.29512 45.0991 8.81032 45.2334C8.32092 45.3554 7.92243 45.7463 7.61473 46.4061C7.31503 47.0489 7.28533 47.6427 7.52573 48.1873C7.76153 48.7195 8.20373 49.1625 8.85233 49.5164L8.45003 50.3792C7.53473 49.8907 6.94132 49.2639 6.66992 48.4988C6.39392 47.7214 6.45513 46.9054 6.85343 46.0511C7.23603 45.2306 7.77823 44.675 8.48013 44.3844C9.17363 44.0898 9.94323 44.1397 10.7891 44.5342C11.8127 45.0114 12.6074 45.902 13.1734 47.206C13.7349 48.4976 14.1825 49.9781 14.5163 51.6475L16.7053 46.9528L17.4539 47.3018L14.6319 53.3543L13.9974 53.0585Z" fill="white"></path><path d="M15.1645 41.2408C13.8281 40.3513 12.9279 39.455 12.4639 38.5519C11.9999 37.6488 12.1221 36.6651 12.8306 35.6006C13.5391 34.5362 14.3994 34.0437 15.4116 34.1232C16.4238 34.2027 17.5981 34.6872 18.9345 35.5767C20.2942 36.4817 21.2099 37.3884 21.6817 38.2966C22.1535 39.2049 22.0351 40.1912 21.3266 41.2557C20.613 42.3279 19.7462 42.8216 18.7262 42.737C17.7114 42.6445 16.5241 42.1458 15.1645 41.2408ZM18.3992 36.3809C17.6767 35.8999 17.0331 35.5445 16.4687 35.3145C15.9042 35.0845 15.3722 35.0163 14.8726 35.1099C14.3731 35.2034 13.9372 35.5299 13.5648 36.0893C13.1925 36.6487 13.0595 37.1769 13.166 37.6738C13.2725 38.1708 13.5408 38.6352 13.9708 39.0672C14.4008 39.4992 14.9771 39.9557 15.6997 40.4366C16.4456 40.9331 17.1047 41.2989 17.6769 41.534C18.2414 41.764 18.7734 41.8322 19.2729 41.7387C19.7725 41.6451 20.2084 41.3186 20.5808 40.7592C20.9531 40.1998 21.086 39.6716 20.9795 39.1747C20.873 38.6778 20.6048 38.2133 20.1748 37.7813C19.737 37.3442 19.1451 36.8774 18.3992 36.3809Z" fill="white"></path><path d="M28.8666 18.4313L30.55 24.9687L33.104 27.7932L32.3771 28.4505L29.8231 25.626L23.4668 23.314L24.2871 22.5722L29.5856 24.6327L28.0566 19.1637L28.8666 18.4313Z" fill="white"></path><path d="M34.2988 15.448L36.3436 18.4763L39.4183 16.4001L39.8727 17.0731L36.798 19.1492L38.8742 22.2239L42.297 19.9127L42.7514 20.5857L38.5164 23.4453L33.0322 15.3235L37.2672 12.4639L37.7216 13.1368L34.2988 15.448Z" fill="white"></path><path d="M50.72 13.8517L46.6976 15.7599L46.9221 18.2256L45.9861 18.6696L45.0713 8.4118L46.0706 7.93781L53.4237 15.1414L52.4877 15.5854L50.72 13.8517ZM50.1064 13.2441L46.0927 9.2909L46.6153 14.9002L50.1064 13.2441Z" fill="white"></path><path d="M62.2987 12.3588L58.834 9.10709L57.0994 9.60999L58.2379 13.5363L57.2967 13.8092L54.5713 4.41039L57.395 3.59159C58.4438 3.28749 59.3099 3.30839 59.9933 3.65449C60.6857 3.99789 61.1501 4.57749 61.3867 5.39319C61.5842 6.07449 61.556 6.71429 61.3019 7.31279C61.0542 7.89959 60.5702 8.37519 59.8498 8.73959L63.4281 12.0313L62.2987 12.3588ZM56.8772 8.84359L58.7731 8.29379C59.5081 8.08069 60.0075 7.74159 60.271 7.27639C60.5435 6.80869 60.5927 6.27449 60.4186 5.67389C60.2392 5.05539 59.9222 4.63229 59.4674 4.40459C59.0101 4.16789 58.396 4.16139 57.6251 4.38489L55.7426 4.93079L56.8772 8.84359Z" fill="white"></path><path d="M70.885 10.8833C70.246 10.9676 69.667 10.931 69.148 10.7737C68.637 10.6152 68.217 10.3553 67.887 9.99401C67.556 9.63281 67.35 9.20821 67.267 8.72021L68.294 8.58461C68.402 9.05041 68.665 9.43931 69.083 9.75131C69.5 10.0541 70.064 10.1584 70.777 10.0644C71.434 9.97771 71.93 9.74271 72.265 9.35951C72.609 8.96581 72.746 8.50991 72.678 7.99171C72.623 7.57541 72.472 7.25631 72.227 7.03461C71.98 6.80361 71.691 6.64871 71.36 6.56991C71.029 6.48191 70.575 6.40051 70.001 6.32581C69.33 6.23551 68.794 6.13211 68.392 6.01561C67.991 5.89921 67.633 5.68281 67.318 5.36661C67.003 5.05041 66.806 4.59161 66.727 3.99021C66.661 3.49051 66.732 3.02931 66.94 2.60641C67.146 2.17431 67.471 1.81611 67.913 1.53171C68.356 1.24741 68.883 1.06491 69.493 0.984311C70.391 0.865811 71.142 0.992613 71.746 1.36461C72.359 1.72621 72.753 2.24851 72.928 2.93151L71.873 3.07081C71.756 2.68141 71.492 2.35851 71.081 2.10201C70.67 1.83631 70.149 1.74501 69.52 1.82801C68.937 1.90501 68.472 2.12641 68.125 2.49231C67.777 2.84901 67.638 3.29561 67.709 3.83231C67.762 4.23941 67.912 4.55391 68.158 4.77561C68.404 4.99741 68.693 5.15221 69.024 5.24021C69.365 5.32701 69.818 5.40841 70.384 5.48441C71.036 5.57711 71.568 5.68581 71.98 5.81031C72.391 5.92551 72.754 6.14121 73.068 6.45741C73.383 6.77361 73.58 7.22781 73.658 7.82001C73.718 8.27341 73.654 8.71961 73.467 9.15851C73.28 9.59731 72.968 9.97291 72.529 10.285C72.09 10.5971 71.542 10.7966 70.885 10.8833Z" fill="white"></path><path d="M89.2899 11.0231C88.3919 10.9085 87.6039 10.5963 86.9259 10.0864C86.2489 9.56721 85.7449 8.90551 85.4149 8.10131C85.0949 7.28891 84.9959 6.40601 85.1179 5.45241C85.2389 4.49881 85.5559 3.67361 86.0689 2.97681C86.5909 2.27191 87.2449 1.75781 88.0289 1.43451C88.8149 1.10191 89.6569 0.992908 90.5549 1.10741C91.4619 1.22311 92.2549 1.54061 92.9319 2.05981C93.6099 2.56971 94.1089 3.23081 94.4289 4.04311C94.7499 4.84621 94.8499 5.72451 94.7279 6.67811C94.6059 7.63171 94.2889 8.46161 93.7749 9.16761C93.2629 9.86441 92.6139 10.3791 91.8279 10.7117C91.0439 11.035 90.1979 11.1388 89.2899 11.0231ZM89.3979 10.1759C90.1209 10.2681 90.7899 10.1841 91.4069 9.92401C92.0229 9.66391 92.5379 9.24501 92.9499 8.66721C93.3639 8.08011 93.6229 7.37461 93.7279 6.55061C93.8329 5.72661 93.7589 4.98321 93.5039 4.32041C93.2499 3.65761 92.8569 3.12291 92.3259 2.71641C91.7939 2.30991 91.1669 2.06051 90.4449 1.96841C89.7229 1.87631 89.0539 1.96031 88.4369 2.22041C87.8209 2.48051 87.3059 2.89941 86.8939 3.47721C86.4809 4.05501 86.2229 4.75591 86.1179 5.57991C86.0129 6.40391 86.0859 7.15191 86.3389 7.82401C86.5939 8.48681 86.9869 9.02151 87.5179 9.42801C88.0499 9.83451 88.6759 10.0838 89.3979 10.1759Z" fill="white"></path><path d="M104.94 4.53351L104.713 5.31331L100.572 4.11041L99.5529 7.61941L103.049 8.63481L102.822 9.41451L99.3269 8.39911L98.0689 12.7282L97.1279 12.4548L99.8579 3.05731L104.94 4.53351Z" fill="white"></path><path d="M117.697 11.0459L115.892 14.2233L119.118 16.0554L118.717 16.7615L115.491 14.9294L113.659 18.1555L117.25 20.195L116.85 20.9011L112.406 18.3777L117.245 9.8559L121.689 12.3793L121.288 13.0854L117.697 11.0459Z" fill="white"></path><path d="M126.321 21.7024L125.655 27.3803L124.794 26.7086L125.344 21.9526L120.964 23.7201L120.103 23.0484L125.464 20.9803L126.123 15.333L126.984 16.0048L126.432 20.7411L130.825 19.0018L131.686 19.6735L126.321 21.7024Z" fill="white"></path><path d="M138.264 30.2161C137.654 30.7931 136.973 31.0579 136.222 31.0103C135.47 30.9627 134.716 30.5388 133.96 29.7384L132.604 28.3038L129.572 31.1697L128.899 30.4575L136.01 23.7352L138.04 25.882C138.79 26.6756 139.167 27.4488 139.173 28.2016C139.184 28.9612 138.881 29.6327 138.264 30.2161ZM134.57 29.1614C135.622 30.2737 136.622 30.3811 137.572 29.4836C138.047 29.0348 138.281 28.5627 138.275 28.0674C138.269 27.572 137.991 27.0327 137.439 26.4494L136.083 25.0148L133.214 27.7268L134.57 29.1614Z" fill="white"></path><path d="M143.556 33.8005L140.574 35.9117L142.717 38.9397L142.054 39.4089L139.911 36.3808L136.883 38.5244L139.269 41.8953L138.606 42.3645L135.654 38.1937L143.652 32.5314L146.605 36.7022L145.942 37.1713L143.556 33.8005Z" fill="white"></path><path d="M143.247 50.82L145.795 46.8095L144.977 45.1993L141.332 47.0503L140.888 46.1765L149.614 41.7454L150.945 44.3667C151.439 45.3404 151.58 46.1952 151.368 46.9311C151.16 47.6754 150.677 48.2399 149.92 48.6245C149.287 48.9456 148.653 49.0373 148.018 48.8993C147.395 48.7655 146.838 48.3787 146.345 47.739L143.779 51.8686L143.247 50.82ZM145.689 44.8379L146.582 46.598C146.929 47.2803 147.355 47.7076 147.861 47.8797C148.372 48.0602 148.906 48.0089 149.463 47.7257C150.037 47.4341 150.394 47.0437 150.533 46.5544C150.68 46.061 150.572 45.4564 150.208 44.7408L149.321 42.9932L145.689 44.8379Z" fill="white"></path><path d="M154.994 53.8421L145.779 57.1358L145.449 56.213L154.664 52.9192L154.994 53.8421Z" fill="white"></path><path d="M156.487 61.6111L152.926 62.4313L153.759 66.047L152.968 66.229L152.135 62.6135L148.519 63.4463L149.447 67.471L148.655 67.653L147.508 62.6736L157.058 60.4738L158.205 65.453L157.414 65.636L156.487 61.6111Z" fill="white"></path><path d="M149.888 79.388L149.814 78.41L157.614 72.388L149.405 73.008L149.332 72.031L159.09 71.293L159.164 72.27L151.377 78.292L159.572 77.673L159.646 78.65L149.888 79.388Z" fill="white"></path><path d="M154.707 83.655C155.664 83.746 156.498 84.036 157.211 84.526C157.933 85.017 158.469 85.645 158.818 86.409C159.176 87.175 159.313 88.003 159.228 88.895C159.124 89.982 158.775 90.887 158.182 91.608C157.596 92.34 156.817 92.838 155.845 93.101L155.954 91.959C156.64 91.743 157.197 91.364 157.623 90.824C158.049 90.292 158.3 89.623 158.378 88.814C158.446 88.099 158.34 87.437 158.06 86.829C157.78 86.231 157.339 85.739 156.739 85.353C156.147 84.969 155.438 84.737 154.611 84.658C153.784 84.579 153.044 84.673 152.39 84.939C151.737 85.205 151.216 85.605 150.827 86.14C150.438 86.684 150.209 87.314 150.141 88.029C150.064 88.838 150.179 89.542 150.488 90.144C150.805 90.755 151.275 91.231 151.899 91.572L151.79 92.715C150.894 92.273 150.228 91.638 149.792 90.809C149.355 89.979 149.188 89.026 149.291 87.948C149.376 87.056 149.662 86.268 150.149 85.583C150.645 84.899 151.29 84.384 152.082 84.037C152.875 83.691 153.75 83.563 154.707 83.655Z" fill="white"></path><path d="M156.553 99.062L153.014 98.155L152.093 101.749L151.306 101.547L152.227 97.954L148.633 97.033L147.608 101.033L146.821 100.832L148.09 95.882L157.583 98.315L156.315 103.265L155.528 103.063L156.553 99.062Z" fill="white"></path><path d="M141.118 120.201C141.357 119.833 141.693 119.6 142.124 119.502C142.563 119.41 142.97 119.486 143.346 119.73C143.729 119.98 143.963 120.321 144.048 120.755C144.141 121.194 144.068 121.598 143.828 121.965C143.579 122.349 143.237 122.583 142.803 122.668C142.372 122.765 141.964 122.69 141.581 122.44C141.206 122.196 140.972 121.854 140.879 121.415C140.789 120.989 140.869 120.584 141.118 120.201Z" fill="#F49811"></path><path d="M122.266 136.087C122.774 135.691 123.292 135.429 123.819 135.301C124.34 135.179 124.834 135.191 125.301 135.335C125.769 135.479 126.162 135.74 126.481 136.119L125.664 136.756C125.335 136.41 124.911 136.208 124.393 136.15C123.88 136.1 123.341 136.296 122.774 136.738C122.251 137.146 121.943 137.6 121.848 138.1C121.751 138.613 121.863 139.076 122.185 139.488C122.443 139.819 122.734 140.018 123.059 140.085C123.389 140.159 123.716 140.146 124.041 140.047C124.372 139.955 124.803 139.795 125.337 139.568C125.961 139.306 126.476 139.124 126.881 139.021C127.286 138.918 127.704 138.923 128.136 139.037C128.567 139.15 128.97 139.445 129.343 139.924C129.653 140.321 129.825 140.755 129.86 141.225C129.901 141.702 129.803 142.175 129.565 142.644C129.328 143.114 128.966 143.538 128.48 143.917C127.766 144.474 127.055 144.745 126.345 144.73C125.634 144.729 125.03 144.478 124.533 143.978L125.372 143.323C125.67 143.6 126.061 143.744 126.545 143.758C127.034 143.778 127.529 143.593 128.03 143.203C128.494 142.841 128.782 142.415 128.896 141.923C129.016 141.439 128.909 140.984 128.576 140.557C128.324 140.233 128.035 140.038 127.711 139.972C127.387 139.905 127.059 139.918 126.729 140.01C126.391 140.108 125.959 140.267 125.433 140.488C124.823 140.739 124.309 140.914 123.891 141.016C123.479 141.124 123.057 141.122 122.625 141.009C122.194 140.896 121.794 140.604 121.427 140.133C121.146 139.772 120.974 139.355 120.913 138.882C120.852 138.409 120.931 137.927 121.152 137.435C121.372 136.944 121.743 136.494 122.266 136.087Z" fill="white"></path><path d="M120.459 149.232L115.421 140.842L116.262 140.338L121.299 148.728L120.459 149.232Z" fill="white"></path><path d="M103.617 146.577L104.516 146.187L112.762 151.584L109.487 144.032L110.386 143.642L114.28 152.62L113.381 153.01L105.14 147.626L108.41 155.165L107.511 155.555L103.617 146.577Z" fill="white"></path><path d="M101.165 152.528C101.392 153.462 101.391 154.346 101.162 155.18C100.935 156.023 100.517 156.735 99.9089 157.315C99.3029 157.904 98.5649 158.305 97.6939 158.517C96.6329 158.775 95.6649 158.742 94.7879 158.417C93.9049 158.104 93.1799 157.531 92.6119 156.699L93.7279 156.428C94.1569 157.005 94.6959 157.407 95.3469 157.633C95.9879 157.861 96.7029 157.879 97.4919 157.687C98.1909 157.517 98.7809 157.2 99.2639 156.737C99.7379 156.276 100.058 155.699 100.226 155.005C100.395 154.32 100.382 153.574 100.185 152.767C99.9889 151.96 99.6579 151.291 99.1929 150.761C98.7269 150.23 98.1779 149.869 97.5459 149.677C96.9039 149.488 96.2339 149.478 95.5359 149.648C94.7469 149.84 94.1189 150.18 93.6519 150.668C93.1779 151.168 92.8819 151.768 92.7639 152.469L91.6489 152.741C91.7729 151.75 92.1549 150.913 92.7949 150.228C93.4359 149.544 94.2819 149.074 95.3339 148.818C96.2039 148.606 97.0429 148.618 97.8499 148.854C98.6579 149.099 99.3559 149.539 99.9429 150.174C100.53 150.81 100.937 151.594 101.165 152.528Z" fill="white"></path><path d="M87.2131 159.321L86.9101 155.679L83.2131 155.987L83.1451 155.178L86.8431 154.87L86.5351 151.173L82.4201 151.515L82.3521 150.706L87.4451 150.283L88.2561 160.049L83.1641 160.472L83.0971 159.663L87.2131 159.321Z" fill="white"></path><path d="M64.3569 159.093L64.4789 158.29L68.7419 158.938L69.2909 155.326L65.6919 154.779L65.8139 153.976L69.4129 154.523L70.0899 150.066L71.0589 150.214L69.5879 159.888L64.3569 159.093Z" fill="white"></path><path d="M56.6985 146.92L57.8183 151.538L59.5453 152.066L60.7415 148.157L61.6786 148.444L58.8151 157.801L56.0037 156.941C54.9595 156.622 54.2462 156.13 53.8636 155.466C53.4721 154.8 53.4007 154.061 53.6492 153.248C53.8567 152.57 54.2306 152.05 54.7708 151.688C55.2993 151.333 55.9647 151.2 56.767 151.289L55.574 146.576L56.6985 146.92ZM59.3118 152.829L57.4242 152.251C56.6923 152.027 56.0888 152.038 55.6137 152.283C55.1296 152.525 54.796 152.945 54.6131 153.543C54.4246 154.159 54.4584 154.687 54.7143 155.126C54.9675 155.575 55.4779 155.916 56.2454 156.151L58.1196 156.725L59.3118 152.829Z" fill="white"></path><path d="M47.4677 142.838C48.2779 143.242 48.9192 143.796 49.3917 144.501C49.86 145.214 50.1175 146.005 50.1644 146.873C50.1988 147.746 50.0014 148.612 49.5725 149.472C49.1435 150.333 48.5724 151.007 47.8592 151.496C47.1335 151.99 46.347 152.26 45.4997 152.307C44.6483 152.362 43.8175 152.188 43.0072 151.784C42.1887 151.375 41.5453 150.815 41.077 150.101C40.6046 149.397 40.3512 148.608 40.3168 147.736C40.2783 146.872 40.4735 146.01 40.9025 145.149C41.3315 144.289 41.9046 143.61 42.622 143.113C43.3352 142.623 44.1175 142.351 44.969 142.296C45.8162 142.249 46.6492 142.43 47.4677 142.838ZM47.0866 143.602C46.4351 143.277 45.7755 143.136 45.1077 143.179C44.4399 143.221 43.8161 143.447 43.2364 143.857C42.6525 144.275 42.1752 144.856 41.8046 145.599C41.4339 146.342 41.2594 147.069 41.2811 147.778C41.3027 148.488 41.4975 149.122 41.8654 149.681C42.2334 150.24 42.7431 150.682 43.3946 151.007C44.0461 151.332 44.7057 151.473 45.3735 151.43C46.0413 151.388 46.6651 151.162 47.2448 150.752C47.8245 150.342 48.2997 149.766 48.6704 149.022C49.0411 148.279 49.2177 147.548 49.2002 146.831C49.1785 146.121 48.9837 145.487 48.6158 144.928C48.2479 144.369 47.7381 143.927 47.0866 143.602Z" fill="white"></path><path d="M27.1016 140.966L32.9293 133.262L33.7109 133.853L29.0572 140.006L36.4576 135.931L37.027 136.362L35.1369 144.569L39.7737 138.44L40.5553 139.031L34.7276 146.735L33.9014 146.11L35.9709 137.178L27.939 141.6L27.1016 140.966Z" fill="white"></path><path d="M24.998 126C22.9303 125.424 21.2087 125.075 19.8333 124.955C18.4449 124.834 17.3621 125.071 16.5851 125.669C16.0745 126.061 15.7671 126.503 15.6628 126.996C15.5454 127.486 15.7085 128.02 16.1522 128.597C16.5844 129.16 17.0976 129.46 17.6917 129.497C18.2727 129.533 18.8697 129.345 19.4828 128.933L20.0629 129.688C19.2074 130.275 18.3776 130.512 17.5736 130.4C16.7564 130.287 16.0606 129.856 15.4862 129.109C14.9344 128.391 14.6914 127.654 14.7571 126.897C14.8155 126.146 15.2146 125.486 15.9546 124.917C16.85 124.229 18.0067 123.934 19.4248 124.033C20.8298 124.131 22.3499 124.416 23.9852 124.889L20.8284 120.783L21.4833 120.279L25.553 125.574L24.998 126Z" fill="white"></path><path d="M15.0489 119.516C13.6434 120.292 12.4331 120.678 11.4177 120.673C10.4024 120.669 9.58584 120.107 8.96794 118.987C8.35004 117.868 8.30974 116.877 8.84694 116.016C9.38414 115.154 10.3554 114.335 11.7609 113.56C13.1908 112.77 14.4176 112.376 15.441 112.376C16.4645 112.376 17.2852 112.936 17.9031 114.055C18.5255 115.183 18.5641 116.18 18.0187 117.046C17.4688 117.904 16.4788 118.727 15.0489 119.516ZM12.2277 114.405C11.4678 114.825 10.8556 115.232 10.3913 115.627C9.92704 116.022 9.62124 116.462 9.47394 116.949C9.32664 117.435 9.41544 117.973 9.74014 118.561C10.0648 119.149 10.4722 119.511 10.9623 119.645C11.4524 119.78 11.9882 119.756 12.5698 119.574C13.1514 119.391 13.8221 119.09 14.5821 118.671C15.3665 118.238 15.995 117.822 16.4675 117.422C16.9318 117.027 17.2376 116.587 17.3849 116.1C17.5321 115.614 17.4434 115.076 17.1187 114.488C16.7939 113.9 16.3865 113.538 15.8965 113.404C15.4064 113.269 14.8706 113.293 14.289 113.475C13.6992 113.662 13.0121 113.972 12.2277 114.405Z" fill="white"></path><path d="M9.77082 109.032C8.26202 109.581 7.00642 109.774 6.00412 109.612C5.00182 109.449 4.28241 108.767 3.84571 107.566C3.40901 106.364 3.52292 105.379 4.18732 104.611C4.85182 103.844 5.93842 103.186 7.44722 102.637C8.98242 102.08 10.2555 101.88 11.2665 102.039C12.2776 102.198 13.0015 102.878 13.4381 104.08C13.878 105.291 13.7613 106.282 13.0881 107.052C12.4117 107.815 11.3059 108.475 9.77082 109.032ZM7.77711 103.545C6.96131 103.842 6.29341 104.149 5.77341 104.467C5.25341 104.785 4.88291 105.173 4.66191 105.631C4.44091 106.088 4.44522 106.633 4.67472 107.264C4.90422 107.896 5.25051 108.316 5.71381 108.525C6.17701 108.734 6.71002 108.794 7.31292 108.704C7.91572 108.614 8.62511 108.421 9.44091 108.124C10.283 107.818 10.9685 107.505 11.4972 107.184C12.0172 106.866 12.3877 106.478 12.6087 106.02C12.8297 105.562 12.8255 105.018 12.596 104.386C12.3665 103.755 12.0201 103.334 11.5569 103.125C11.0937 102.916 10.5606 102.857 9.95782 102.947C9.34612 103.04 8.61921 103.239 7.77711 103.545Z" fill="white"></path><path d="M6.18344 97.856C4.60784 98.164 3.33754 98.159 2.37254 97.844C1.40754 97.528 0.802634 96.743 0.557834 95.487C0.313034 94.232 0.578335 93.277 1.35394 92.622C2.12944 91.967 3.30503 91.485 4.88063 91.178C6.48373 90.865 7.77234 90.866 8.74654 91.18C9.72064 91.494 10.3301 92.278 10.575 93.533C10.8216 94.797 10.5525 95.758 9.76784 96.415C8.98134 97.063 7.78654 97.543 6.18344 97.856ZM5.06564 92.126C4.21364 92.292 3.50613 92.492 2.94313 92.726C2.38003 92.959 1.95384 93.285 1.66454 93.703C1.37514 94.12 1.29483 94.659 1.42353 95.319C1.55223 95.978 1.82914 96.447 2.25434 96.726C2.67944 97.004 3.19684 97.146 3.80634 97.15C4.41584 97.155 5.14654 97.074 5.99854 96.908C6.87794 96.736 7.60374 96.533 8.17594 96.298C8.73904 96.064 9.16524 95.739 9.45454 95.321C9.74394 94.903 9.82424 94.364 9.69554 93.705C9.56694 93.045 9.28994 92.576 8.86484 92.298C8.43964 92.019 7.92224 91.878 7.31274 91.873C6.69404 91.87 5.94504 91.955 5.06564 92.126Z" fill="white"></path><path d="M6.97835 70.306C6.91575 70.741 6.70925 71.093 6.35905 71.363C5.99965 71.632 5.59825 71.734 5.15485 71.67C4.70225 71.605 4.34615 71.393 4.08665 71.035C3.81795 70.675 3.71485 70.279 3.77755 69.844C3.84295 69.392 4.05465 69.036 4.41275 68.776C4.76285 68.506 5.16425 68.404 5.61695 68.469C6.06035 68.533 6.41645 68.745 6.68515 69.104C6.94595 69.453 7.04375 69.854 6.97835 70.306Z" fill="#C48F56"></path><path d="M16.1747 50.3807C16.0863 50.566 15.9487 50.6917 15.7621 50.7577C15.5794 50.8153 15.3955 50.7999 15.2102 50.7115C15.0249 50.623 14.9014 50.4917 14.8397 50.3175C14.7737 50.1308 14.7849 49.9449 14.8733 49.7595C14.9578 49.5827 15.0913 49.4654 15.2739 49.4078C15.4522 49.3377 15.6339 49.3469 15.8192 49.4354C16.0045 49.5238 16.1302 49.6614 16.1963 49.848C16.2663 50.0262 16.2591 50.2038 16.1747 50.3807Z" fill="white"></path></svg>